<?xml version="1.0" encoding="utf-8"?>
<!-- Generator: Adobe Illustrator 16.0.0, SVG Export Plug-In . SVG Version: 6.00 Build 0)  -->
<!DOCTYPE svg PUBLIC "-//W3C//DTD SVG 1.1//EN" "http://www.w3.org/Graphics/SVG/1.1/DTD/svg11.dtd">
<svg version="1.1" id="Layer_1" xmlns="http://www.w3.org/2000/svg" xmlns:xlink="http://www.w3.org/1999/xlink" x="0px" y="0px"
	 width="512px" height="512px" viewBox="0 0 512 512" enable-background="new 0 0 512 512" xml:space="preserve">
<g id="Layer_1_1_">
	<g>
		<g>
			<path fill="#009688" d="M256,512C114.616,512,0,397.384,0,256S114.616,0,256,0c141.389,0,256,114.616,256,256
				S397.389,512,256,512z"/>
		</g>
	</g>
	<g>
		<g>
			<g>
				<circle fill="#FFFFFF" cx="164.571" cy="201.143" r="73.143"/>
			</g>
			<g>
				<circle fill="#FFFFFF" cx="347.429" cy="201.143" r="73.143"/>
			</g>
			<g>
				<path fill="#FFFFFF" d="M347.429,182.857c0,50.502-40.927,91.429-91.429,91.429c-50.505,0-91.429-40.927-91.429-91.429
					c0-50.503,40.924-91.429,91.429-91.429C306.502,91.429,347.429,132.354,347.429,182.857z"/>
			</g>
		</g>
		<g>
			<rect x="164.571" y="237.714" fill="#FFFFFF" width="182.857" height="182.856"/>
		</g>
		<g>
			<rect x="198.857" y="301.714" fill="#C4C3C4" width="4.571" height="91.429"/>
		</g>
		<g>
			<rect x="235.429" y="301.714" fill="#C4C3C4" width="4.571" height="91.429"/>
		</g>
		<g>
			<rect x="272" y="301.714" fill="#C4C3C4" width="4.57" height="91.429"/>
		</g>
		<g>
			<rect x="308.571" y="301.714" fill="#C4C3C4" width="4.57" height="91.429"/>
		</g>
		<g>
			<rect x="164.571" y="388.57" fill="#FF642F" width="182.857" height="9.144"/>
		</g>
	</g>
</g>
<g id="Layer_1_2_">
</g>
</svg>
